<svg width="18" height="18" viewBox="0 0 18 18" fill="none" xmlns="http://www.w3.org/2000/svg">
<g opacity="0.5">
<path fill-rule="evenodd" clip-rule="evenodd" d="M3.40494 1.5H5.93994C6.99744 1.5 7.84494 2.3625 7.84494 3.42075V5.9775C7.84494 7.0425 6.99744 7.8975 5.93994 7.8975H3.40494C2.35494 7.8975 1.49994 7.0425 1.49994 5.9775V3.42075C1.49994 2.3625 2.35494 1.5 3.40494 1.5ZM3.40494 10.1023H5.93994C6.99744 10.1023 7.84494 10.958 7.84494 12.023V14.5798C7.84494 15.6373 6.99744 16.4998 5.93994 16.4998H3.40494C2.35494 16.4998 1.49994 15.6373 1.49994 14.5798V12.023C1.49994 10.958 2.35494 10.1023 3.40494 10.1023ZM14.595 1.5H12.06C11.0025 1.5 10.155 2.3625 10.155 3.42075V5.9775C10.155 7.0425 11.0025 7.8975 12.06 7.8975H14.595C15.645 7.8975 16.5 7.0425 16.5 5.9775V3.42075C16.5 2.3625 15.645 1.5 14.595 1.5ZM12.06 10.1023H14.595C15.645 10.1023 16.5 10.958 16.5 12.023V14.5798C16.5 15.6373 15.645 16.4998 14.595 16.4998H12.06C11.0025 16.4998 10.155 15.6373 10.155 14.5798V12.023C10.155 10.958 11.0025 10.1023 12.06 10.1023Z" fill="white"/>
</g>
</svg>
