<svg width="18" height="18" viewBox="0 0 18 18" fill="none" xmlns="http://www.w3.org/2000/svg">
<g opacity="0.5">
<path fill-rule="evenodd" clip-rule="evenodd" d="M10.0178 4.83792C9.98007 4.47316 9.94075 4.09472 9.84402 3.71708C9.58056 2.81365 8.85073 2.25001 8.06822 2.25001C7.63174 2.2484 7.07965 2.51733 6.76665 2.78949L4.17215 4.96273H2.81396C1.81438 4.96273 1.01063 5.7333 0.858849 6.84528C0.729871 7.91298 0.698413 9.92839 0.858849 11.1032C0.99805 12.278 1.76562 13.0373 2.81396 13.0373H4.17215L6.81698 15.2427C7.0883 15.4786 7.56725 15.7492 8.00766 15.7492C8.03597 15.75 8.06114 15.75 8.08631 15.75C8.88376 15.75 9.58606 15.1654 9.84952 14.2644C9.94878 13.8835 9.98357 13.5264 10.0172 13.1814V13.1814L10.0178 13.175L10.0532 12.8311C10.1885 11.7159 10.1885 6.27681 10.0532 5.16966L10.0178 4.83792ZM13.0549 4.87093C12.8387 4.55207 12.41 4.47236 12.0962 4.69379C11.7856 4.91683 11.7085 5.35647 11.9248 5.67452C12.5264 6.56105 12.8575 7.74147 12.8575 9C12.8575 10.2577 12.5264 11.439 11.9248 12.3255C11.7085 12.6435 11.7856 13.0832 12.097 13.3062C12.2134 13.3883 12.3495 13.4318 12.4895 13.4318C12.7152 13.4318 12.926 13.3183 13.0549 13.1291C13.8146 12.0098 14.2338 10.5436 14.2338 9C14.2338 7.45643 13.8146 5.99016 13.0549 4.87093ZM14.4675 2.4158C14.7806 2.19356 15.2107 2.27489 15.4254 2.59294C16.602 4.32493 17.25 6.60123 17.25 8.99992C17.25 11.4002 16.602 13.6757 15.4254 15.4077C15.2972 15.5969 15.0857 15.7105 14.86 15.7105C14.72 15.7105 14.5847 15.667 14.4683 15.5848C14.1569 15.3618 14.0798 14.923 14.2953 14.6041C15.313 13.1048 15.8737 11.1144 15.8737 8.99992C15.8737 6.88627 15.313 4.89581 14.2953 3.39653C14.0798 3.07848 14.1569 2.63884 14.4675 2.4158Z" fill="white"/>
</g>
</svg>
