<svg width="16" height="16" viewBox="0 0 16 16" fill="none" xmlns="http://www.w3.org/2000/svg">
<path fill-rule="evenodd" clip-rule="evenodd" d="M5.39836 8C5.39836 9.42222 6.56259 10.5794 7.99999 10.5794C9.43088 10.5794 10.5951 9.42222 10.5951 8C10.5951 6.57131 9.43088 5.41414 7.99999 5.41414C6.56259 5.41414 5.39836 6.57131 5.39836 8ZM11.8244 4.0307C12.9626 4.9099 13.9317 6.19636 14.6277 7.80606C14.6797 7.92889 14.6797 8.07111 14.6277 8.18747C13.2358 11.4069 10.7577 13.3333 8.00001 13.3333H7.99351C5.24229 13.3333 2.76424 11.4069 1.37237 8.18747C1.32034 8.07111 1.32034 7.92889 1.37237 7.80606C2.76424 4.58666 5.24229 2.66666 7.99351 2.66666H8.00001C9.37887 2.66666 10.6862 3.14505 11.8244 4.0307ZM8.00081 9.60827C8.89186 9.60827 9.62032 8.88423 9.62032 7.99858C9.62032 7.10645 8.89186 6.38241 8.00081 6.38241C7.92276 6.38241 7.84471 6.38888 7.77317 6.40181C7.74715 7.11292 7.16178 7.68181 6.43983 7.68181H6.40731C6.3878 7.78524 6.37479 7.88868 6.37479 7.99858C6.37479 8.88423 7.10325 9.60827 8.00081 9.60827Z" fill="#808191"/>
</svg>
