<svg width="14" height="14" viewBox="0 0 14 14" fill="none" xmlns="http://www.w3.org/2000/svg">
<path d="M12.504 1.50615C12.2122 1.20667 11.7804 1.0951 11.3777 1.21254L1.98802 3.94305C1.56318 4.06107 1.26205 4.39989 1.18094 4.83031C1.09807 5.26837 1.38752 5.82445 1.76568 6.05698L4.70163 7.86146C5.00275 8.04643 5.39141 8.00004 5.6406 7.74872L9.00256 4.36583C9.17179 4.18967 9.45191 4.18967 9.62114 4.36583C9.79038 4.53612 9.79038 4.81211 9.62114 4.98827L6.25335 8.37174C6.00358 8.62248 5.95689 9.01297 6.14072 9.31597L7.93462 12.2814C8.14471 12.6337 8.50652 12.8333 8.90335 12.8333C8.95004 12.8333 9.00256 12.8333 9.04924 12.8275C9.50443 12.7687 9.86624 12.4575 10.0005 12.0171L12.7841 2.63945C12.9067 2.24015 12.7958 1.80562 12.504 1.50615Z" fill="white"/>
</svg>
