<svg width="14" height="14" viewBox="0 0 14 14" fill="none" xmlns="http://www.w3.org/2000/svg">
<path fill-rule="evenodd" clip-rule="evenodd" d="M9.24568 1.45875C9.61376 1.45875 9.98126 1.51067 10.3307 1.62792C12.4838 2.32792 13.2596 4.69042 12.6115 6.75542C12.244 7.81067 11.6432 8.77375 10.8563 9.56067C9.72985 10.6515 8.49376 11.6198 7.16318 12.454L7.01735 12.5421L6.86568 12.4482C5.53043 11.6198 4.28735 10.6515 3.15043 9.55483C2.36876 8.76792 1.76735 7.81067 1.39401 6.75542C0.734847 4.69042 1.51068 2.32792 3.6871 1.61567C3.85626 1.55733 4.03068 1.5165 4.20568 1.49375H4.27568C4.4396 1.46983 4.60235 1.45875 4.76568 1.45875H4.82985C5.19735 1.46983 5.55318 1.534 5.89793 1.65125H5.93235C5.95568 1.66233 5.97318 1.67458 5.98485 1.68567C6.11376 1.72708 6.23568 1.77375 6.35235 1.83792L6.57401 1.93708C6.62758 1.96565 6.6877 2.0093 6.73966 2.04702C6.77258 2.07093 6.80222 2.09245 6.82485 2.10625C6.83437 2.11187 6.84404 2.11751 6.8538 2.12321C6.90381 2.1524 6.95591 2.18282 6.99985 2.2165C7.64793 1.72125 8.43485 1.45292 9.24568 1.45875ZM10.7973 5.65875C11.0365 5.65233 11.2407 5.46041 11.2582 5.21483V5.14541C11.2757 4.32816 10.7804 3.58791 10.0273 3.30208C9.78817 3.21983 9.52567 3.34875 9.43817 3.59375C9.35651 3.83875 9.48484 4.10708 9.72984 4.194C10.1038 4.334 10.354 4.70208 10.354 5.10983V5.12791C10.3429 5.2615 10.3832 5.39041 10.4648 5.48958C10.5465 5.58875 10.669 5.6465 10.7973 5.65875Z" fill="#808191"/>
</svg>
