<svg width="20" height="20" viewBox="0 0 20 20" fill="none" xmlns="http://www.w3.org/2000/svg">
<path opacity="0.1" d="M0 10C0 15.51 4.48 20 10 20C15.51 20 20 15.51 20 10C20 4.48 15.51 0 10 0C4.48 0 0 4.48 0 10Z" fill="white"/>
<path d="M12.9399 8.02998C13.2299 7.72998 13.6999 7.72998 13.9999 8.01998C14.1499 8.16998 14.2199 8.35998 14.2199 8.55998C14.2199 8.74998 14.1499 8.93998 13.9999 9.07998L10.5299 12.57C10.3899 12.71 10.1999 12.79 9.9999 12.79C9.7999 12.79 9.6099 12.71 9.4699 12.57L5.9999 9.07998C5.6999 8.78998 5.6999 8.31998 5.9999 8.01998C6.2899 7.72998 6.7699 7.72998 7.0599 8.02998L9.9999 10.98L12.9399 8.02998Z" fill="white"/>
</svg>
