<svg width="28" height="28" viewBox="0 0 28 28" fill="none" xmlns="http://www.w3.org/2000/svg">
<g opacity="0.3">
<path fill-rule="evenodd" clip-rule="evenodd" d="M2.33344 13.9999C2.33344 7.55989 7.54843 2.33322 14.0001 2.33322C20.4401 2.33322 25.6668 7.55989 25.6668 13.9999C25.6668 20.4399 20.4401 25.6666 14.0001 25.6666C7.54843 25.6666 2.33344 20.4399 2.33344 13.9999ZM8.77344 15.3999C8.00344 15.3999 7.37344 14.7699 7.37344 13.9999C7.37344 13.2299 8.00344 12.6011 8.77344 12.6011C9.54344 12.6011 10.1618 13.2299 10.1618 13.9999C10.1618 14.7699 9.54344 15.3999 8.77344 15.3999ZM12.6001 13.9999C12.6001 14.7699 13.2301 15.3999 14.0001 15.3999C14.7701 15.3999 15.3884 14.7699 15.3884 13.9999C15.3884 13.2299 14.7701 12.6011 14.0001 12.6011C13.2301 12.6011 12.6001 13.2299 12.6001 13.9999ZM17.8268 13.9999C17.8268 14.7699 18.4451 15.3999 19.2268 15.3999C19.9968 15.3999 20.6151 14.7699 20.6151 13.9999C20.6151 13.2299 19.9968 12.6011 19.2268 12.6011C18.4451 12.6011 17.8268 13.2299 17.8268 13.9999Z" fill="white"/>
</g>
</svg>
